REM DIRINDEX 1\3,1\4,1\5,1\6,1\2\7,1\2\8,1\2\9,1\10
REM DIRNAME cjc056,folder01,folder02,folder03,folder04,folder05,folder06,folder07,folder08,folder09
TITLE ""
FILE "1-35 Level 2-301-312.mp3" MP3
  TRACK 01 AUDIO
    TITLE "0:"
    INDEX 01 00:00:00
  TRACK 02 AUDIO
    TITLE "7:cjc056_1028"
    INDEX 01 00:00:05
  TRACK 03 AUDIO
    TITLE "0:"
    INDEX 01 00:01:17
  TRACK 04 AUDIO
    TITLE "8:cjc056_1029"
    INDEX 01 00:01:28
  TRACK 05 AUDIO
    TITLE "0:"
    INDEX 01 00:02:49
  TRACK 06 AUDIO
    TITLE "9:cjc056_1030"
    INDEX 01 00:02:61
  TRACK 07 AUDIO
    TITLE "0:"
    INDEX 01 00:04:44
  TRACK 08 AUDIO
    TITLE "7:cjc056_1031"
    INDEX 01 00:05:22
  TRACK 09 AUDIO
    TITLE "0:"
    INDEX 01 00:06:24
  TRACK 10 AUDIO
    TITLE "8:cjc056_1032"
    INDEX 01 00:06:37
  TRACK 11 AUDIO
    TITLE "0:"
    INDEX 01 00:07:45
  TRACK 12 AUDIO
    TITLE "9:cjc056_1033"
    INDEX 01 00:07:56
  TRACK 13 AUDIO
    TITLE "0:"
    INDEX 01 00:09:24
  TRACK 14 AUDIO
    TITLE "7:cjc056_1034"
    INDEX 01 00:10:02
  TRACK 15 AUDIO
    TITLE "0:"
    INDEX 01 00:11:05
  TRACK 16 AUDIO
    TITLE "8:cjc056_1035"
    INDEX 01 00:11:19
  TRACK 17 AUDIO
    TITLE "0:"
    INDEX 01 00:12:22
  TRACK 18 AUDIO
    TITLE "9:cjc056_1036"
    INDEX 01 00:12:34
  TRACK 19 AUDIO
    TITLE "0:"
    INDEX 01 00:14:06
  TRACK 20 AUDIO
    TITLE "8:cjc056_1037"
    INDEX 01 00:14:31
  TRACK 21 AUDIO
    TITLE "0:"
    INDEX 01 00:15:54
  TRACK 22 AUDIO
    TITLE "9:cjc056_1038"
    INDEX 01 00:15:64
  TRACK 23 AUDIO
    TITLE "0:"
    INDEX 01 00:18:48
  TRACK 24 AUDIO
    TITLE "7:cjc056_1039"
    INDEX 01 00:19:24
  TRACK 25 AUDIO
    TITLE "0:"
    INDEX 01 00:20:37
  TRACK 26 AUDIO
    TITLE "8:cjc056_1040"
    INDEX 01 00:20:51
  TRACK 27 AUDIO
    TITLE "0:"
    INDEX 01 00:21:64
  TRACK 28 AUDIO
    TITLE "9:cjc056_1041"
    INDEX 01 00:22:01
  TRACK 29 AUDIO
    TITLE "0:"
    INDEX 01 00:23:26
  TRACK 30 AUDIO
    TITLE "7:cjc056_1042"
    INDEX 01 00:24:02
  TRACK 31 AUDIO
    TITLE "0:"
    INDEX 01 00:25:01
  TRACK 32 AUDIO
    TITLE "8:cjc056_1043"
    INDEX 01 00:25:17
  TRACK 33 AUDIO
    TITLE "0:"
    INDEX 01 00:26:34
  TRACK 34 AUDIO
    TITLE "9:cjc056_1044"
    INDEX 01 00:26:50
  TRACK 35 AUDIO
    TITLE "0:"
    INDEX 01 00:27:73
  TRACK 36 AUDIO
    TITLE "7:cjc056_1045"
    INDEX 01 00:28:49
  TRACK 37 AUDIO
    TITLE "0:"
    INDEX 01 00:29:54
  TRACK 38 AUDIO
    TITLE "8:cjc056_1046"
    INDEX 01 00:29:64
  TRACK 39 AUDIO
    TITLE "0:"
    INDEX 01 00:31:04
  TRACK 40 AUDIO
    TITLE "9:cjc056_1047"
    INDEX 01 00:31:16
  TRACK 41 AUDIO
    TITLE "0:"
    INDEX 01 00:32:50
  TRACK 42 AUDIO
    TITLE "7:cjc056_1048"
    INDEX 01 00:33:26
  TRACK 43 AUDIO
    TITLE "0:"
    INDEX 01 00:34:42
  TRACK 44 AUDIO
    TITLE "8:cjc056_1049"
    INDEX 01 00:34:53
  TRACK 45 AUDIO
    TITLE "0:"
    INDEX 01 00:35:74
  TRACK 46 AUDIO
    TITLE "9:cjc056_1050"
    INDEX 01 00:36:11
  TRACK 47 AUDIO
    TITLE "0:"
    INDEX 01 00:38:02
  TRACK 48 AUDIO
    TITLE "7:cjc056_1051"
    INDEX 01 00:38:51
  TRACK 49 AUDIO
    TITLE "0:"
    INDEX 01 00:39:74
  TRACK 50 AUDIO
    TITLE "8:cjc056_1052"
    INDEX 01 00:40:15
  TRACK 51 AUDIO
    TITLE "0:"
    INDEX 01 00:41:63
  TRACK 52 AUDIO
    TITLE "9:cjc056_1053"
    INDEX 01 00:42:00
  TRACK 53 AUDIO
    TITLE "0:"
    INDEX 01 00:43:46
  TRACK 54 AUDIO
    TITLE "7:cjc056_1054"
    INDEX 01 00:44:24
  TRACK 55 AUDIO
    TITLE "0:"
    INDEX 01 00:45:33
  TRACK 56 AUDIO
    TITLE "8:cjc056_1055"
    INDEX 01 00:45:47
  TRACK 57 AUDIO
    TITLE "0:"
    INDEX 01 00:46:72
  TRACK 58 AUDIO
    TITLE "9:cjc056_1056"
    INDEX 01 00:47:09
  TRACK 59 AUDIO
    TITLE "0:"
    INDEX 01 00:48:57
  TRACK 60 AUDIO
    TITLE "7:cjc056_1057"
    INDEX 01 00:49:33
  TRACK 61 AUDIO
    TITLE "0:"
    INDEX 01 00:50:41
  TRACK 62 AUDIO
    TITLE "8:cjc056_1058"
    INDEX 01 00:50:50
  TRACK 63 AUDIO
    TITLE "0:"
    INDEX 01 00:52:28
  TRACK 64 AUDIO
    TITLE "9:cjc056_1059"
    INDEX 01 00:52:36
  TRACK 65 AUDIO
    TITLE "0:"
    INDEX 01 00:54:09
  TRACK 66 AUDIO
    TITLE "7:cjc056_1060"
    INDEX 01 00:54:60
  TRACK 67 AUDIO
    TITLE "0:"
    INDEX 01 00:55:63
  TRACK 68 AUDIO
    TITLE "8:cjc056_1061"
    INDEX 01 00:55:71
  TRACK 69 AUDIO
    TITLE "0:"
    INDEX 01 00:57:33
  TRACK 70 AUDIO
    TITLE "9:cjc056_1062"
    INDEX 01 00:57:46
  TRACK 71 AUDIO
    TITLE "0:"
    INDEX 01 00:59:06
  TRACK 72 AUDIO
    TITLE "7:cjc056_1063"
    INDEX 01 00:59:57
  TRACK 73 AUDIO
    TITLE "0:"
    INDEX 01 01:01:03
  TRACK 74 AUDIO
    TITLE "8:cjc056_1064"
    INDEX 01 01:01:19
  TRACK 75 AUDIO
    TITLE "0:"
    INDEX 01 01:02:71
  TRACK 76 AUDIO
    TITLE "9:cjc056_1065"
    INDEX 01 01:03:10
  TRACK 77 AUDIO
    TITLE "0:"
    INDEX 01 01:05:44
